<?xml version="1.0" encoding="utf-8"?>
<!-- Generator: Adobe Illustrator 26.0.0, SVG Export Plug-In . SVG Version: 6.00 Build 0)  -->
<svg version="1.1" id="Layer_1" xmlns="http://www.w3.org/2000/svg" xmlns:xlink="http://www.w3.org/1999/xlink" x="0px" y="0px"
	 viewBox="0 0 500 500" style="enable-background:new 0 0 500 500;" xml:space="preserve">
<style type="text/css">
	.st0{fill:#13AA52;}
	.st1{fill:#FFFFFF;}
</style>
<g>
	<circle class="st0" cx="250" cy="250" r="250"/>
	<path class="st1" d="M316.8,219.5c-15.8-69.7-53.1-92.6-57.1-101.4c-4.4-6.2-8.8-17.2-8.8-17.2c-0.1-0.2-0.2-0.5-0.3-0.8
		c-0.5,6.2-0.7,8.6-6.5,14.8c-9,7.1-55.4,46-59.2,125.2c-3.5,73.8,53.3,117.9,61,123.5l0.9,0.6v-0.1c0,0.4,2.4,17.6,4.1,35.8h6
		c1.4-12.9,3.5-25.7,6.3-38.3l0.5-0.3c3.4-2.5,6.7-5.1,9.8-8l0.4-0.3c16.3-15.1,45.7-50,45.4-105.7
		C319.2,237.9,318.4,228.6,316.8,219.5L316.8,219.5z M250.2,321.8c0,0,0-103.6,3.4-103.6c2.7,0,6.1,133.6,6.1,133.6
		C255,351.3,250.2,329.9,250.2,321.8z"/>
</g>
</svg>
