<?xml version="1.0" encoding="utf-8"?>
<!-- Generator: Adobe Illustrator 26.0.0, SVG Export Plug-In . SVG Version: 6.00 Build 0)  -->
<svg version="1.1" id="Layer_1" xmlns="http://www.w3.org/2000/svg" xmlns:xlink="http://www.w3.org/1999/xlink" x="0px" y="0px"
	 viewBox="0 0 500 500" style="enable-background:new 0 0 500 500;" xml:space="preserve">
<style type="text/css">
	.st0{fill:#404137;}
	.st1{fill:#83CD29;}
</style>
<g>
	<path class="st0" d="M336.5,160.4c-0.5,0-0.9,0.1-1.3,0.4c-0.8,0.5-1.3,1.4-1.3,2.3v68.4c0,0.7-0.3,1.3-0.9,1.6
		c-0.6,0.3-1.3,0.3-1.9,0l-11.2-6.4c-1.7-1-3.7-1-5.4,0l-44.6,25.7c-1.7,1-2.7,2.8-2.7,4.7v51.5c0,1.9,1,3.7,2.7,4.6l44.6,25.7
		c1.7,1,3.7,1,5.4,0l44.6-25.7c1.7-1,2.7-2.7,2.7-4.6V180.2c0-2-1.1-3.8-2.8-4.7l-26.5-14.8C337.4,160.4,337,160.4,336.5,160.4
		L336.5,160.4z M49.7,224.6c-0.8,0-1.6,0.2-2.4,0.6L2.7,251c-1.7,1-2.7,2.7-2.7,4.6l0.1,69.1c0,1,0.5,1.9,1.3,2.3
		c0.8,0.5,1.9,0.5,2.7,0l26.4-15.2c1.7-1,2.8-2.7,2.8-4.6v-32.3c0-1.9,1-3.7,2.7-4.6l11.3-6.5c0.8-0.5,1.7-0.7,2.7-0.7
		c0.9,0,1.9,0.2,2.7,0.7l11.3,6.5c1.7,1,2.7,2.7,2.7,4.6v32.3c0,1.9,1.1,3.7,2.8,4.6L95.8,327c0.8,0.5,1.9,0.5,2.7,0
		c0.8-0.5,1.3-1.4,1.3-2.3l0.1-69.1c0-1.9-1-3.7-2.7-4.6l-44.6-25.7c-0.8-0.4-1.6-0.6-2.4-0.6H49.7z M450.3,225.2
		c-0.9,0-1.8,0.2-2.7,0.7l-44.6,25.7c-1.7,1-2.7,2.7-2.7,4.6v51.5c0,1.9,1.1,3.7,2.8,4.6l44.2,25.2c1.6,0.9,3.6,1,5.3,0.1l26.8-14.9
		c0.9-0.5,1.4-1.4,1.4-2.3c0-1-0.5-1.9-1.3-2.3l-44.9-25.7c-0.8-0.5-1.4-1.4-1.4-2.4v-16.1c0-1,0.6-1.8,1.4-2.3l13.9-8
		c0.8-0.5,1.9-0.5,2.7,0l13.9,8c0.8,0.5,1.3,1.4,1.3,2.3v12.7c0,1,0.5,1.8,1.3,2.3c0.8,0.5,1.8,0.5,2.7,0l26.7-15.5
		c1.7-1,2.7-2.7,2.7-4.6v-12.4c0-1.9-1-3.7-2.7-4.6L453,226C452.2,225.5,451.3,225.2,450.3,225.2L450.3,225.2z M317,263.7
		c0.2,0,0.5,0.1,0.7,0.2l15.3,8.8c0.4,0.2,0.7,0.7,0.7,1.2v17.7c0,0.5-0.3,0.9-0.7,1.2l-15.3,8.8c-0.4,0.2-0.9,0.2-1.3,0l-15.3-8.8
		c-0.4-0.2-0.7-0.7-0.7-1.2v-17.7c0-0.5,0.3-0.9,0.7-1.2l15.3-8.8C316.6,263.7,316.8,263.7,317,263.7L317,263.7L317,263.7z"/>
	<path class="st1" d="M183.6,225c-0.9,0-1.8,0.2-2.7,0.7l-44.6,25.6c-1.7,1-2.7,2.8-2.7,4.7v51.5c0,1.9,1,3.7,2.7,4.6l44.6,25.7
		c1.7,1,3.7,1,5.4,0l44.6-25.7c1.7-1,2.7-2.7,2.7-4.6v-51.5c0-1.9-1-3.8-2.7-4.7l-44.6-25.6C185.5,225.2,184.6,225,183.6,225z
		 M450.2,270.9c-0.2,0-0.4,0-0.5,0.1l-8.6,5c-0.3,0.2-0.5,0.5-0.5,0.9v9.8c0,0.4,0.2,0.7,0.5,0.9l8.6,4.9c0.3,0.2,0.7,0.2,1,0
		l8.6-4.9c0.3-0.2,0.5-0.5,0.5-0.9v-9.8c0-0.4-0.2-0.7-0.5-0.9l-8.6-5C450.5,270.9,450.4,270.9,450.2,270.9L450.2,270.9z"/>
</g>
</svg>
